<?xml version="1.0" encoding="UTF-8" standalone="no"?>
<svg 
    role="img" 
    xmlns="http://www.w3.org/2000/svg" 
    width="1000mm"
    height="1000mm"
    viewBox="0 0 1000 1000"
    style="max-width:1.6em; height: auto;">
    
    <path 
        id="path" 
        style="opacity:1;vector-effect:none;fill:#000000;fill-opacity:1;"
        d=" M 190 260C 181 260 175 266 175 275C 175 275 175 845 175 845C 175 854 181 860 190 860C 190 860 610 860 610 860C 619 860 625 854 625 845C 625 845 625 775 625 775C 625 775 400 775 400 775C 389 775 379 773 369 768C 368 768 367 767 366 767C 342 754 325 729 325 700C 325 700 325 260 325 260C 325 260 190 260 190 260M 725 161C 725 161 725 221 725 221C 725 221 787 222 787 222C 787 222 725 161 725 161M 400 125C 386 125 375 136 375 150C 375 150 375 235 375 235C 375 235 375 700 375 700C 375 709 379 716 386 721C 386 721 386 721 386 721C 387 722 388 722 389 723C 389 723 389 723 389 723C 392 724 396 725 400 725C 400 725 800 725 800 725C 814 725 825 714 825 700C 825 700 823 272 823 272C 823 272 700 271 700 271C 686 271 675 260 675 246C 675 246 675 126 675 126C 675 126 400 125 400 125C 400 125 400 125 400 125M 400 75C 400 75 400 75 400 75C 400 75 400 75 400 75C 400 75 699 76 699 76C 705 76 711 79 716 83C 716 83 865 228 865 228C 870 233 873 240 873 246C 873 246 875 700 875 700C 875 741 841 775 800 775C 800 775 675 775 675 775C 675 775 675 845 675 845C 675 881 646 910 610 910C 610 910 190 910 190 910C 154 910 125 881 125 845C 125 845 125 275 125 275C 125 240 153 212 187 210C 188 210 189 210 190 210C 190 210 325 210 325 210C 325 210 325 150 325 150C 325 110 357 77 397 75C 398 75 399 75 400 75C 400 75 400 75 400 75C 400 75 400 75 400 75"
        transform="">
    </path>    
</svg>