<?xml version="1.0" encoding="UTF-8" standalone="no"?>
<svg 
    role="img" 
    xmlns="http://www.w3.org/2000/svg" 
    width="1000mm"
    height="1000mm"
    viewBox="0 0 1000 1000"
    style="max-width:1.6em; height: auto;">
    
    <path 
        id="path" 
        style="opacity:1;vector-effect:none;fill:#000000;fill-opacity:1;"
        d=" M 575 75C 602 75 625 98 625 125C 625 125 625 200 625 200C 625 200 849 200 849 200C 863 199 875 211 875 225C 875 238 863 250 849 250C 849 250 773 250 773 250C 773 250 726 853 726 853C 726 855 725 856 725 858C 721 874 714 889 702 903C 690 916 672 926 652 926C 651 926 651 926 651 926C 651 926 351 927 351 927C 351 927 350 927 350 927C 329 926 310 916 298 902C 286 889 279 872 276 855C 276 855 276 854 276 854C 276 854 227 250 227 250C 227 250 151 250 151 250C 137 251 125 239 125 225C 125 212 137 200 151 200C 151 200 376 200 376 200C 376 200 375 125 375 125C 375 125 375 125 375 125C 375 98 398 75 425 75C 425 75 575 75 575 75M 426 199C 426 199 575 199 575 199C 575 199 575 125 575 125C 575 125 425 125 425 125C 425 125 426 199 426 199M 277 250C 277 250 326 849 326 849C 327 855 330 863 335 869C 340 874 345 877 352 877C 352 877 650 876 650 876C 657 876 660 874 665 869C 669 864 673 856 676 847C 676 847 723 250 723 250C 723 250 277 250 277 250"
        transform="">
    </path>    
</svg>